<svg id="visual" viewBox="0 0 960 540" width="960" height="540" xmlns="http://www.w3.org/2000/svg" xmlns:xlink="http://www.w3.org/1999/xlink" version="1.1"><rect x="0" y="0" width="960" height="540" fill="#ffffff"></rect><defs><linearGradient id="grad1_0" x1="43.8%" y1="0%" x2="100%" y2="100%"><stop offset="14.444444444444446%" stop-color="#0066ff" stop-opacity="1"></stop><stop offset="85.55555555555554%" stop-color="#0066ff" stop-opacity="1"></stop></linearGradient></defs><defs><linearGradient id="grad1_1" x1="43.8%" y1="0%" x2="100%" y2="100%"><stop offset="14.444444444444446%" stop-color="#0066ff" stop-opacity="1"></stop><stop offset="85.55555555555554%" stop-color="#5a7aff" stop-opacity="1"></stop></linearGradient></defs><defs><linearGradient id="grad1_2" x1="43.8%" y1="0%" x2="100%" y2="100%"><stop offset="14.444444444444446%" stop-color="#808eff" stop-opacity="1"></stop><stop offset="85.55555555555554%" stop-color="#5a7aff" stop-opacity="1"></stop></linearGradient></defs><defs><linearGradient id="grad1_3" x1="43.8%" y1="0%" x2="100%" y2="100%"><stop offset="14.444444444444446%" stop-color="#808eff" stop-opacity="1"></stop><stop offset="85.55555555555554%" stop-color="#9ea4ff" stop-opacity="1"></stop></linearGradient></defs><defs><linearGradient id="grad1_4" x1="43.8%" y1="0%" x2="100%" y2="100%"><stop offset="14.444444444444446%" stop-color="#b9baff" stop-opacity="1"></stop><stop offset="85.55555555555554%" stop-color="#9ea4ff" stop-opacity="1"></stop></linearGradient></defs><defs><linearGradient id="grad1_5" x1="43.8%" y1="0%" x2="100%" y2="100%"><stop offset="14.444444444444446%" stop-color="#b9baff" stop-opacity="1"></stop><stop offset="85.55555555555554%" stop-color="#d2d0ff" stop-opacity="1"></stop></linearGradient></defs><defs><linearGradient id="grad1_6" x1="43.8%" y1="0%" x2="100%" y2="100%"><stop offset="14.444444444444446%" stop-color="#e9e7ff" stop-opacity="1"></stop><stop offset="85.55555555555554%" stop-color="#d2d0ff" stop-opacity="1"></stop></linearGradient></defs><defs><linearGradient id="grad1_7" x1="43.8%" y1="0%" x2="100%" y2="100%"><stop offset="14.444444444444446%" stop-color="#e9e7ff" stop-opacity="1"></stop><stop offset="85.55555555555554%" stop-color="#ffffff" stop-opacity="1"></stop></linearGradient></defs><defs><linearGradient id="grad2_0" x1="0%" y1="0%" x2="56.3%" y2="100%"><stop offset="14.444444444444446%" stop-color="#0066ff" stop-opacity="1"></stop><stop offset="85.55555555555554%" stop-color="#0066ff" stop-opacity="1"></stop></linearGradient></defs><defs><linearGradient id="grad2_1" x1="0%" y1="0%" x2="56.3%" y2="100%"><stop offset="14.444444444444446%" stop-color="#5a7aff" stop-opacity="1"></stop><stop offset="85.55555555555554%" stop-color="#0066ff" stop-opacity="1"></stop></linearGradient></defs><defs><linearGradient id="grad2_2" x1="0%" y1="0%" x2="56.3%" y2="100%"><stop offset="14.444444444444446%" stop-color="#5a7aff" stop-opacity="1"></stop><stop offset="85.55555555555554%" stop-color="#808eff" stop-opacity="1"></stop></linearGradient></defs><defs><linearGradient id="grad2_3" x1="0%" y1="0%" x2="56.3%" y2="100%"><stop offset="14.444444444444446%" stop-color="#9ea4ff" stop-opacity="1"></stop><stop offset="85.55555555555554%" stop-color="#808eff" stop-opacity="1"></stop></linearGradient></defs><defs><linearGradient id="grad2_4" x1="0%" y1="0%" x2="56.3%" y2="100%"><stop offset="14.444444444444446%" stop-color="#9ea4ff" stop-opacity="1"></stop><stop offset="85.55555555555554%" stop-color="#b9baff" stop-opacity="1"></stop></linearGradient></defs><defs><linearGradient id="grad2_5" x1="0%" y1="0%" x2="56.3%" y2="100%"><stop offset="14.444444444444446%" stop-color="#d2d0ff" stop-opacity="1"></stop><stop offset="85.55555555555554%" stop-color="#b9baff" stop-opacity="1"></stop></linearGradient></defs><defs><linearGradient id="grad2_6" x1="0%" y1="0%" x2="56.3%" y2="100%"><stop offset="14.444444444444446%" stop-color="#d2d0ff" stop-opacity="1"></stop><stop offset="85.55555555555554%" stop-color="#e9e7ff" stop-opacity="1"></stop></linearGradient></defs><defs><linearGradient id="grad2_7" x1="0%" y1="0%" x2="56.3%" y2="100%"><stop offset="14.444444444444446%" stop-color="#ffffff" stop-opacity="1"></stop><stop offset="85.55555555555554%" stop-color="#e9e7ff" stop-opacity="1"></stop></linearGradient></defs><g transform="translate(960, 0)"><path d="M0 324C-28.6 306.1 -57.3 288.2 -91.5 281.5C-125.7 274.8 -165.5 279.2 -190.4 262.1C-215.4 245 -225.6 206.3 -242.7 176.3C-259.8 146.3 -283.9 125 -298.6 97C-313.3 69.1 -318.7 34.5 -324 0L0 0Z" fill="#f4f3ff"></path><path d="M0 283.5C-25.1 267.9 -50.1 252.2 -80 246.3C-110 240.4 -144.8 244.3 -166.6 229.4C-188.5 214.4 -197.4 180.6 -212.4 154.3C-227.4 128 -248.4 109.4 -261.3 84.9C-274.2 60.4 -278.8 30.2 -283.5 0L0 0Z" fill="#dddcff"></path><path d="M0 243C-21.5 229.6 -42.9 216.2 -68.6 211.1C-94.3 206.1 -124.1 209.4 -142.8 196.6C-161.6 183.8 -169.2 154.8 -182 132.3C-194.9 109.7 -212.9 93.7 -224 72.8C-235 51.8 -239 25.9 -243 0L0 0Z" fill="#c5c5ff"></path><path d="M0 202.5C-17.9 191.3 -35.8 180.1 -57.2 175.9C-78.5 171.7 -103.4 174.5 -119 163.8C-134.6 153.1 -141 129 -151.7 110.2C-162.4 91.5 -177.5 78.1 -186.6 60.6C-195.8 43.2 -199.2 21.6 -202.5 0L0 0Z" fill="#acafff"></path><path d="M0 162C-14.3 153.1 -28.6 144.1 -45.7 140.8C-62.8 137.4 -82.7 139.6 -95.2 131.1C-107.7 122.5 -112.8 103.2 -121.4 88.2C-129.9 73.2 -142 62.5 -149.3 48.5C-156.7 34.5 -159.3 17.3 -162 0L0 0Z" fill="#9099ff"></path><path d="M0 121.5C-10.7 114.8 -21.5 108.1 -34.3 105.6C-47.1 103 -62.1 104.7 -71.4 98.3C-80.8 91.9 -84.6 77.4 -91 66.1C-97.4 54.9 -106.5 46.9 -112 36.4C-117.5 25.9 -119.5 13 -121.5 0L0 0Z" fill="#6e84ff"></path><path d="M0 81C-7.2 76.5 -14.3 72.1 -22.9 70.4C-31.4 68.7 -41.4 69.8 -47.6 65.5C-53.9 61.3 -56.4 51.6 -60.7 44.1C-65 36.6 -71 31.2 -74.7 24.3C-78.3 17.3 -79.7 8.6 -81 0L0 0Z" fill="#3f70ff"></path><path d="M0 40.5C-3.6 38.3 -7.2 36 -11.4 35.2C-15.7 34.3 -20.7 34.9 -23.8 32.8C-26.9 30.6 -28.2 25.8 -30.3 22C-32.5 18.3 -35.5 15.6 -37.3 12.1C-39.2 8.6 -39.8 4.3 -40.5 0L0 0Z" fill="#0066ff"></path></g><g transform="translate(0, 540)"><path d="M0 -324C35.6 -323.1 71.3 -322.2 100.1 -308.1C129 -294.1 151.1 -266.8 178.7 -245.9C206.3 -225.1 239.4 -210.8 254.8 -185.2C270.3 -159.5 268.2 -122.7 276.8 -89.9C285.3 -57.2 304.7 -28.6 324 0L0 0Z" fill="#f4f3ff"></path><path d="M0 -283.5C31.2 -282.7 62.3 -282 87.6 -269.6C112.9 -257.3 132.2 -233.4 156.4 -215.2C180.5 -197 209.4 -184.4 223 -162C236.5 -139.6 234.6 -107.3 242.2 -78.7C249.7 -50 266.6 -25 283.5 0L0 0Z" fill="#dddcff"></path><path d="M0 -243C26.7 -242.3 53.4 -241.7 75.1 -231.1C96.7 -220.5 113.3 -200.1 134 -184.5C154.7 -168.8 179.5 -158.1 191.1 -138.9C202.7 -119.7 201.1 -92 207.6 -67.4C214 -42.9 228.5 -21.4 243 0L0 0Z" fill="#c5c5ff"></path><path d="M0 -202.5C22.3 -201.9 44.5 -201.4 62.6 -192.6C80.6 -183.8 94.4 -166.7 111.7 -153.7C128.9 -140.7 149.6 -131.7 159.3 -115.7C168.9 -99.7 167.6 -76.7 173 -56.2C178.3 -35.7 190.4 -17.9 202.5 0L0 0Z" fill="#acafff"></path><path d="M0 -162C17.8 -161.6 35.6 -161.1 50.1 -154.1C64.5 -147 75.5 -133.4 89.3 -123C103.1 -112.6 119.7 -105.4 127.4 -92.6C135.2 -79.8 134.1 -61.3 138.4 -45C142.7 -28.6 152.3 -14.3 162 0L0 0Z" fill="#9099ff"></path><path d="M0 -121.5C13.4 -121.2 26.7 -120.8 37.5 -115.6C48.4 -110.3 56.7 -100 67 -92.2C77.4 -84.4 89.8 -79 95.6 -69.4C101.4 -59.8 100.6 -46 103.8 -33.7C107 -21.4 114.3 -10.7 121.5 0L0 0Z" fill="#6e84ff"></path><path d="M0 -81C8.9 -80.8 17.8 -80.6 25 -77C32.2 -73.5 37.8 -66.7 44.7 -61.5C51.6 -56.3 59.8 -52.7 63.7 -46.3C67.6 -39.9 67 -30.7 69.2 -22.5C71.3 -14.3 76.2 -7.1 81 0L0 0Z" fill="#3f70ff"></path><path d="M0 -40.5C4.5 -40.4 8.9 -40.3 12.5 -38.5C16.1 -36.8 18.9 -33.3 22.3 -30.7C25.8 -28.1 29.9 -26.3 31.9 -23.1C33.8 -19.9 33.5 -15.3 34.6 -11.2C35.7 -7.1 38.1 -3.6 40.5 0L0 0Z" fill="#0066ff"></path></g></svg>