<svg id="visual" viewBox="0 0 960 540" width="960" height="540" xmlns="http://www.w3.org/2000/svg" xmlns:xlink="http://www.w3.org/1999/xlink" version="1.1"><path d="M0 100L13.3 102.8C26.7 105.7 53.3 111.3 80 112C106.7 112.7 133.3 108.3 160 103.7C186.7 99 213.3 94 240 92.7C266.7 91.3 293.3 93.7 320 97.3C346.7 101 373.3 106 400 103.7C426.7 101.3 453.3 91.7 480 89.8C506.7 88 533.3 94 560 98C586.7 102 613.3 104 640 100.8C666.7 97.7 693.3 89.3 720 88.8C746.7 88.3 773.3 95.7 800 96.3C826.7 97 853.3 91 880 90C906.7 89 933.3 93 946.7 95L960 97L960 0L946.7 0C933.3 0 906.7 0 880 0C853.3 0 826.7 0 800 0C773.3 0 746.7 0 720 0C693.3 0 666.7 0 640 0C613.3 0 586.7 0 560 0C533.3 0 506.7 0 480 0C453.3 0 426.7 0 400 0C373.3 0 346.7 0 320 0C293.3 0 266.7 0 240 0C213.3 0 186.7 0 160 0C133.3 0 106.7 0 80 0C53.3 0 26.7 0 13.3 0L0 0Z" fill="#81ff94"></path><path d="M0 60L13.3 57.5C26.7 55 53.3 50 80 50.7C106.7 51.3 133.3 57.7 160 61C186.7 64.3 213.3 64.7 240 65.5C266.7 66.3 293.3 67.7 320 66.5C346.7 65.3 373.3 61.7 400 61.2C426.7 60.7 453.3 63.3 480 61.7C506.7 60 533.3 54 560 53.7C586.7 53.3 613.3 58.7 640 60.2C666.7 61.7 693.3 59.3 720 55.8C746.7 52.3 773.3 47.7 800 46.5C826.7 45.3 853.3 47.7 880 47.3C906.7 47 933.3 44 946.7 42.5L960 41L960 0L946.7 0C933.3 0 906.7 0 880 0C853.3 0 826.7 0 800 0C773.3 0 746.7 0 720 0C693.3 0 666.7 0 640 0C613.3 0 586.7 0 560 0C533.3 0 506.7 0 480 0C453.3 0 426.7 0 400 0C373.3 0 346.7 0 320 0C293.3 0 266.7 0 240 0C213.3 0 186.7 0 160 0C133.3 0 106.7 0 80 0C53.3 0 26.7 0 13.3 0L0 0Z" fill="#2eb4ff"></path></svg>