<svg id="visual" viewBox="0 0 960 540" width="960" height="540" xmlns="http://www.w3.org/2000/svg" xmlns:xlink="http://www.w3.org/1999/xlink" version="1.1"><path d="M0 107L13.3 106.8C26.7 106.7 53.3 106.3 80 108.7C106.7 111 133.3 116 160 115C186.7 114 213.3 107 240 107.2C266.7 107.3 293.3 114.7 320 114.7C346.7 114.7 373.3 107.3 400 105.8C426.7 104.3 453.3 108.7 480 112.7C506.7 116.7 533.3 120.3 560 118.2C586.7 116 613.3 108 640 104.5C666.7 101 693.3 102 720 103.7C746.7 105.3 773.3 107.7 800 109C826.7 110.3 853.3 110.7 880 112.5C906.7 114.3 933.3 117.7 946.7 119.3L960 121L960 0L946.7 0C933.3 0 906.7 0 880 0C853.3 0 826.7 0 800 0C773.3 0 746.7 0 720 0C693.3 0 666.7 0 640 0C613.3 0 586.7 0 560 0C533.3 0 506.7 0 480 0C453.3 0 426.7 0 400 0C373.3 0 346.7 0 320 0C293.3 0 266.7 0 240 0C213.3 0 186.7 0 160 0C133.3 0 106.7 0 80 0C53.3 0 26.7 0 13.3 0L0 0Z" fill="#81ff94"></path><path d="M0 84L13.3 82.8C26.7 81.7 53.3 79.3 80 80C106.7 80.7 133.3 84.3 160 86.8C186.7 89.3 213.3 90.7 240 91C266.7 91.3 293.3 90.7 320 90.5C346.7 90.3 373.3 90.7 400 90.8C426.7 91 453.3 91 480 89.5C506.7 88 533.3 85 560 83C586.7 81 613.3 80 640 80.2C666.7 80.3 693.3 81.7 720 83.5C746.7 85.3 773.3 87.7 800 89.5C826.7 91.3 853.3 92.7 880 94C906.7 95.3 933.3 96.7 946.7 97.3L960 98L960 0L946.7 0C933.3 0 906.7 0 880 0C853.3 0 826.7 0 800 0C773.3 0 746.7 0 720 0C693.3 0 666.7 0 640 0C613.3 0 586.7 0 560 0C533.3 0 506.7 0 480 0C453.3 0 426.7 0 400 0C373.3 0 346.7 0 320 0C293.3 0 266.7 0 240 0C213.3 0 186.7 0 160 0C133.3 0 106.7 0 80 0C53.3 0 26.7 0 13.3 0L0 0Z" fill="#00efdb"></path><path d="M0 67L13.3 67.2C26.7 67.3 53.3 67.7 80 65C106.7 62.3 133.3 56.7 160 54.7C186.7 52.7 213.3 54.3 240 54.8C266.7 55.3 293.3 54.7 320 56.5C346.7 58.3 373.3 62.7 400 64.7C426.7 66.7 453.3 66.3 480 66.8C506.7 67.3 533.3 68.7 560 67.3C586.7 66 613.3 62 640 60.8C666.7 59.7 693.3 61.3 720 60.5C746.7 59.7 773.3 56.3 800 54.7C826.7 53 853.3 53 880 53.8C906.7 54.7 933.3 56.3 946.7 57.2L960 58L960 0L946.7 0C933.3 0 906.7 0 880 0C853.3 0 826.7 0 800 0C773.3 0 746.7 0 720 0C693.3 0 666.7 0 640 0C613.3 0 586.7 0 560 0C533.3 0 506.7 0 480 0C453.3 0 426.7 0 400 0C373.3 0 346.7 0 320 0C293.3 0 266.7 0 240 0C213.3 0 186.7 0 160 0C133.3 0 106.7 0 80 0C53.3 0 26.7 0 13.3 0L0 0Z" fill="#00d5f9"></path><path d="M0 23L13.3 23.3C26.7 23.7 53.3 24.3 80 24.2C106.7 24 133.3 23 160 25.5C186.7 28 213.3 34 240 36.3C266.7 38.7 293.3 37.3 320 36.3C346.7 35.3 373.3 34.7 400 34.7C426.7 34.7 453.3 35.3 480 35.2C506.7 35 533.3 34 560 33.2C586.7 32.3 613.3 31.7 640 31C666.7 30.3 693.3 29.7 720 31.2C746.7 32.7 773.3 36.3 800 35.5C826.7 34.7 853.3 29.3 880 27.3C906.7 25.3 933.3 26.7 946.7 27.3L960 28L960 0L946.7 0C933.3 0 906.7 0 880 0C853.3 0 826.7 0 800 0C773.3 0 746.7 0 720 0C693.3 0 666.7 0 640 0C613.3 0 586.7 0 560 0C533.3 0 506.7 0 480 0C453.3 0 426.7 0 400 0C373.3 0 346.7 0 320 0C293.3 0 266.7 0 240 0C213.3 0 186.7 0 160 0C133.3 0 106.7 0 80 0C53.3 0 26.7 0 13.3 0L0 0Z" fill="#2eb4ff"></path></svg>