<svg id="visual" viewBox="0 0 960 540" width="960" height="540" xmlns="http://www.w3.org/2000/svg" xmlns:xlink="http://www.w3.org/1999/xlink" version="1.1"><path d="M0 201L13.3 202C26.7 203 53.3 205 80 199C106.7 193 133.3 179 160 172C186.7 165 213.3 165 240 169.5C266.7 174 293.3 183 320 189.8C346.7 196.7 373.3 201.3 400 200.7C426.7 200 453.3 194 480 189.3C506.7 184.7 533.3 181.3 560 182C586.7 182.7 613.3 187.3 640 188.2C666.7 189 693.3 186 720 187.7C746.7 189.3 773.3 195.7 800 198.3C826.7 201 853.3 200 880 195.3C906.7 190.7 933.3 182.3 946.7 178.2L960 174L960 0L946.7 0C933.3 0 906.7 0 880 0C853.3 0 826.7 0 800 0C773.3 0 746.7 0 720 0C693.3 0 666.7 0 640 0C613.3 0 586.7 0 560 0C533.3 0 506.7 0 480 0C453.3 0 426.7 0 400 0C373.3 0 346.7 0 320 0C293.3 0 266.7 0 240 0C213.3 0 186.7 0 160 0C133.3 0 106.7 0 80 0C53.3 0 26.7 0 13.3 0L0 0Z" fill="#81ff94"></path><path d="M0 136L13.3 131C26.7 126 53.3 116 80 116.5C106.7 117 133.3 128 160 131.5C186.7 135 213.3 131 240 126.3C266.7 121.7 293.3 116.3 320 117.8C346.7 119.3 373.3 127.7 400 132.3C426.7 137 453.3 138 480 136.5C506.7 135 533.3 131 560 126.7C586.7 122.3 613.3 117.7 640 118.7C666.7 119.7 693.3 126.3 720 129C746.7 131.7 773.3 130.3 800 127.2C826.7 124 853.3 119 880 120.7C906.7 122.3 933.3 130.7 946.7 134.8L960 139L960 0L946.7 0C933.3 0 906.7 0 880 0C853.3 0 826.7 0 800 0C773.3 0 746.7 0 720 0C693.3 0 666.7 0 640 0C613.3 0 586.7 0 560 0C533.3 0 506.7 0 480 0C453.3 0 426.7 0 400 0C373.3 0 346.7 0 320 0C293.3 0 266.7 0 240 0C213.3 0 186.7 0 160 0C133.3 0 106.7 0 80 0C53.3 0 26.7 0 13.3 0L0 0Z" fill="#00e3ee"></path><path d="M0 60L13.3 58C26.7 56 53.3 52 80 53.5C106.7 55 133.3 62 160 64C186.7 66 213.3 63 240 65.8C266.7 68.7 293.3 77.3 320 78.3C346.7 79.3 373.3 72.7 400 69.5C426.7 66.3 453.3 66.7 480 64.2C506.7 61.7 533.3 56.3 560 58.8C586.7 61.3 613.3 71.7 640 72C666.7 72.3 693.3 62.7 720 59.2C746.7 55.7 773.3 58.3 800 63.3C826.7 68.3 853.3 75.7 880 79.7C906.7 83.7 933.3 84.3 946.7 84.7L960 85L960 0L946.7 0C933.3 0 906.7 0 880 0C853.3 0 826.7 0 800 0C773.3 0 746.7 0 720 0C693.3 0 666.7 0 640 0C613.3 0 586.7 0 560 0C533.3 0 506.7 0 480 0C453.3 0 426.7 0 400 0C373.3 0 346.7 0 320 0C293.3 0 266.7 0 240 0C213.3 0 186.7 0 160 0C133.3 0 106.7 0 80 0C53.3 0 26.7 0 13.3 0L0 0Z" fill="#2eb4ff"></path></svg>