<svg id="visual" viewBox="0 0 960 540" width="960" height="540" xmlns="http://www.w3.org/2000/svg" xmlns:xlink="http://www.w3.org/1999/xlink" version="1.1"><path d="M0 95L26.7 91.2C53.3 87.3 106.7 79.7 160 75.2C213.3 70.7 266.7 69.3 320 69.8C373.3 70.3 426.7 72.7 480 75.3C533.3 78 586.7 81 640 84.2C693.3 87.3 746.7 90.7 800 87.7C853.3 84.7 906.7 75.3 933.3 70.7L960 66L960 0L933.3 0C906.7 0 853.3 0 800 0C746.7 0 693.3 0 640 0C586.7 0 533.3 0 480 0C426.7 0 373.3 0 320 0C266.7 0 213.3 0 160 0C106.7 0 53.3 0 26.7 0L0 0Z" fill="#050505" stroke-linecap="round" stroke-linejoin="miter"></path></svg>